HIERARCHY
ROOT Hips
{
  OFFSET 1.847 71.654 -222.982
  CHANNELS 6 Xposition Yposition Zposition Zrotation Xrotation Yrotation
  JOINT LeftHip
  {
    OFFSET 7.442 -4.707 6.103
    CHANNELS 6 Xposition Yposition Zposition Zrotation Xrotation Yrotation
    JOINT LeftKnee
    {
      OFFSET 0.000 -47.768 0.000
      CHANNELS 6 Xposition Yposition Zposition Zrotation Xrotation Yrotation
      JOINT LeftAnkle
      {
        OFFSET -0.000 -36.750 -0.000
        CHANNELS 6 Xposition Yposition Zposition Zrotation Xrotation Yrotation
        End Site
        {
          OFFSET -0.000 -6.933 4.003
        }
      }
    }
  }
  JOINT RightHip
  {
    OFFSET -7.457 -5.179 5.087
    CHANNELS 6 Xposition Yposition Zposition Zrotation Xrotation Yrotation
    JOINT RightKnee
    {
      OFFSET -0.000 -48.407 0.000
      CHANNELS 6 Xposition Yposition Zposition Zrotation Xrotation Yrotation
      JOINT RightAnkle
      {
        OFFSET -0.000 -36.550 -0.000
        CHANNELS 6 Xposition Yposition Zposition Zrotation Xrotation Yrotation
        End Site
        {
          OFFSET 0.000 -7.199 4.156
        }
      }
    }
  }
  JOINT Chest
  {
    OFFSET 0.000 4.659 -4.659
    CHANNELS 6 Xposition Yposition Zposition Zrotation Xrotation Yrotation
    JOINT LeftCollar
    {
      OFFSET -0.000 33.435 0.000
      CHANNELS 6 Xposition Yposition Zposition Zrotation Xrotation Yrotation
      JOINT LeftShoulder
      {
        OFFSET 14.026 -14.026 -0.000
        CHANNELS 6 Xposition Yposition Zposition Zrotation Xrotation Yrotation
        JOINT LeftElbow
        {
          OFFSET 0.000 -20.243 0.000
          CHANNELS 6 Xposition Yposition Zposition Zrotation Xrotation Yrotation
          JOINT LeftWrist
          {
            OFFSET 0.000 -23.859 -0.000
            CHANNELS 6 Xposition Yposition Zposition Zrotation Xrotation Yrotation
            JOINT LeftFinger0
            {
            OFFSET -0.620 -4.970 3.390
            CHANNELS 6 Xposition Yposition Zposition Zrotation Xrotation Yrotation
              JOINT LeftFinger01
              {
              OFFSET -0.000 -2.150 0.000
              CHANNELS 6 Xposition Yposition Zposition Zrotation Xrotation Yrotation
                JOINT LeftFinger02
                {
                OFFSET -0.000 -2.200 0.000
                CHANNELS 6 Xposition Yposition Zposition Zrotation Xrotation Yrotation
                  JOINT LeftFinger03
                  {
                  OFFSET -0.000 -1.700 0.000
                  CHANNELS 6 Xposition Yposition Zposition Zrotation Xrotation Yrotation
                  }
                }
              }
            }
            JOINT LeftFinger1
            {
            OFFSET 0.680 -8.730 2.070
            CHANNELS 6 Xposition Yposition Zposition Zrotation Xrotation Yrotation
              JOINT LeftFinger11
              {
              OFFSET -0.000 -2.670 0.000
              CHANNELS 6 Xposition Yposition Zposition Zrotation Xrotation Yrotation
                JOINT LeftFinger12
                {
                OFFSET -0.000 -2.130 0.000
                CHANNELS 6 Xposition Yposition Zposition Zrotation Xrotation Yrotation
                  JOINT LeftFinger13
                  {
                  OFFSET -0.000 -1.800 0.000
                  CHANNELS 6 Xposition Yposition Zposition Zrotation Xrotation Yrotation
                  }
                }
              }
            }
            JOINT LeftFinger2
            {
            OFFSET 0.670 -9.220 0.550
            CHANNELS 6 Xposition Yposition Zposition Zrotation Xrotation Yrotation
              JOINT LeftFinger21
              {
              OFFSET -0.000 -2.660 0.000
              CHANNELS 6 Xposition Yposition Zposition Zrotation Xrotation Yrotation
                JOINT LeftFinger22
                {
                OFFSET -0.000 -2.280 0.000
                CHANNELS 6 Xposition Yposition Zposition Zrotation Xrotation Yrotation
                  JOINT LeftFinger23
                  {
                  OFFSET -0.000 -1.500 0.000
                  CHANNELS 6 Xposition Yposition Zposition Zrotation Xrotation Yrotation
                  }
                }
              }
            }
            JOINT LeftFinger3
            {
            OFFSET 0.670 -9.250 -1.130
            CHANNELS 6 Xposition Yposition Zposition Zrotation Xrotation Yrotation
              JOINT LeftFinger31
              {
              OFFSET -0.000 -2.470 0.000
              CHANNELS 6 Xposition Yposition Zposition Zrotation Xrotation Yrotation
                JOINT LeftFinger32
                {
                OFFSET -0.000 -2.210 0.000
                CHANNELS 6 Xposition Yposition Zposition Zrotation Xrotation Yrotation
                  JOINT LeftFinger33
                  {
                  OFFSET -0.000 -1.800 0.000
                  CHANNELS 6 Xposition Yposition Zposition Zrotation Xrotation Yrotation
                  }
                }
              }
            }
            JOINT LeftFinger4
            {
            OFFSET 0.660 -9.350 -2.720
            CHANNELS 6 Xposition Yposition Zposition Zrotation Xrotation Yrotation
              JOINT LeftFinger41
              {
              OFFSET -0.000 -1.630 0.000
              CHANNELS 6 Xposition Yposition Zposition Zrotation Xrotation Yrotation
                JOINT LeftFinger42
                {
                OFFSET -0.000 -1.710 0.000
                CHANNELS 6 Xposition Yposition Zposition Zrotation Xrotation Yrotation
                  JOINT LeftFinger43
                  {
                OFFSET -0.000 -1.710 0.000
                  CHANNELS 6 Xposition Yposition Zposition Zrotation Xrotation Yrotation
                  }
                }
              }
            }
          }
        }
      }
    }
    JOINT RightCollar
    {
      OFFSET -0.000 33.435 0.000
      CHANNELS 6 Xposition Yposition Zposition Zrotation Xrotation Yrotation
      JOINT RightShoulder
      {
        OFFSET -13.931 -13.931 -0.000
        CHANNELS 6 Xposition Yposition Zposition Zrotation Xrotation Yrotation
        JOINT RightElbow
        {
          OFFSET -0.000 -21.289 0.000
          CHANNELS 6 Xposition Yposition Zposition Zrotation Xrotation Yrotation
          JOINT RightWrist
          {
            OFFSET -0.000 -22.730 -0.000
            CHANNELS 6 Xposition Yposition Zposition Zrotation Xrotation Yrotation
            JOINT RightFinger0
            {
            OFFSET 0.620 -4.970 3.390
            CHANNELS 6 Xposition Yposition Zposition Zrotation Xrotation Yrotation
              JOINT RightFinger01
              {
              OFFSET -0.000 -2.150 0.000
              CHANNELS 6 Xposition Yposition Zposition Zrotation Xrotation Yrotation
                JOINT RightFinger02
                {
                OFFSET -0.000 -2.200 0.000
                CHANNELS 6 Xposition Yposition Zposition Zrotation Xrotation Yrotation
                  JOINT RightFinger03
                  {
                  OFFSET -0.000 -1.700 0.000
                  CHANNELS 6 Xposition Yposition Zposition Zrotation Xrotation Yrotation
                  }
                }
              }
            }
            JOINT RightFinger1
            {
            OFFSET -0.680 -8.730 2.070
            CHANNELS 6 Xposition Yposition Zposition Zrotation Xrotation Yrotation
              JOINT RightFinger11
              {
              OFFSET -0.000 -2.670 0.000
              CHANNELS 6 Xposition Yposition Zposition Zrotation Xrotation Yrotation
                JOINT RightFinger12
                {
                OFFSET -0.000 -2.130 0.000
                CHANNELS 6 Xposition Yposition Zposition Zrotation Xrotation Yrotation
                  JOINT RightFinger13
                  {
                  OFFSET -0.000 -1.800 0.000
                  CHANNELS 6 Xposition Yposition Zposition Zrotation Xrotation Yrotation
                  }
                }
              }
            }
            JOINT RightFinger2
            {
            OFFSET -0.670 -9.220 0.550
            CHANNELS 6 Xposition Yposition Zposition Zrotation Xrotation Yrotation
              JOINT RightFinger21
              {
              OFFSET -0.000 -2.660 0.000
              CHANNELS 6 Xposition Yposition Zposition Zrotation Xrotation Yrotation
                JOINT RightFinger22
                {
                OFFSET -0.000 -2.280 0.000
                CHANNELS 6 Xposition Yposition Zposition Zrotation Xrotation Yrotation
                  JOINT RightFinger23
                  {
                  OFFSET -0.000 -1.500 0.000
                  CHANNELS 6 Xposition Yposition Zposition Zrotation Xrotation Yrotation
                  }
                }
              }
            }
            JOINT RightFinger3
            {
            OFFSET -0.670 -9.250 -1.130
            CHANNELS 6 Xposition Yposition Zposition Zrotation Xrotation Yrotation
              JOINT RightFinger31
              {
              OFFSET -0.000 -2.470 0.000
              CHANNELS 6 Xposition Yposition Zposition Zrotation Xrotation Yrotation
                JOINT RightFinger32
                {
                OFFSET -0.000 -2.210 0.000
                CHANNELS 6 Xposition Yposition Zposition Zrotation Xrotation Yrotation
                  JOINT RightFinger33
                  {
                  OFFSET -0.000 -1.800 0.000
                  CHANNELS 6 Xposition Yposition Zposition Zrotation Xrotation Yrotation
                  }
                }
              }
            }
            JOINT RightFinger4
            {
            OFFSET -0.660 -9.350 -2.720
            CHANNELS 6 Xposition Yposition Zposition Zrotation Xrotation Yrotation
              JOINT RightFinger41
              {
              OFFSET -0.000 -1.630 0.000
              CHANNELS 6 Xposition Yposition Zposition Zrotation Xrotation Yrotation
                JOINT RightFinger42
                {
                OFFSET -0.000 -1.710 0.000
                CHANNELS 6 Xposition Yposition Zposition Zrotation Xrotation Yrotation
                  JOINT RightFinger43
                  {
                  OFFSET -0.000 -1.800 0.000
                  CHANNELS 6 Xposition Yposition Zposition Zrotation Xrotation Yrotation
                  }
                }
              }
            }
          }
        }
      }
    }
    JOINT Neck
    {
      OFFSET -0.000 33.435 0.000
      CHANNELS 6 Xposition Yposition Zposition Zrotation Xrotation Yrotation
      JOINT Head
      {
        OFFSET -0.000 16.424 -0.000
        CHANNELS 6 Xposition Yposition Zposition Zrotation Xrotation Yrotation
        End Site
        {
          OFFSET -0.000 0.066 -0.000
        }
      }
    }
  }
}
MOTION
Frames:	4
Frame Time:	0.0333333
-0.757282 73.1794 -232.556 1.38953 41.7412 -2.90539 7.99986 -4.38454 6.31962 2.6301 -32.0839 -4.17837 -2.98023e-06 -47.5388 4.76837e-05 -4.54055 -7.6244 -0.603675 -8.9407e-06 -37.4769 -2.38419e-05 9.95844 -5.29319 6.71501 -8.08734 -5.65696 5.26297 -1.3269 -32.947 -6.3311 -1.19209e-05 -49.2181 0 3.35803 -4.77205 0.279678 1.19209e-05 -36.2787 4.76837e-05 -15.2134 -15.2522 -12.7679 0 4.93994 -4.93984 0.937867 -47.5404 0.779206 -2.98023e-06 33.435 -2.38419e-05 14.468 3.33775 3.34341 13.6817 -13.6817 0 -6.28492 -31.7155 -56.652 5.96046e-06 -19.5741 1.19209e-05 -180 -79.7448 -180 1.19209e-05 -24.6902 -4.76837e-05 14.9274 -17.6701 0.898359 0.0062 0.0497 0.0339 0 0 0 0 0.0215 0 0 0 0 0 0.022 0 0 0 0 0 0.017 0 0 0 0 -0.0068 0.0873 0.0207 0 0 0 0 0.0267 0 0 0 0 0 0.0213 0 0 0 0 0 0.018 0 0 0 0 -0.0067 0.0922 0.0055 0 0 0 0 0.0266 0 0 0 0 0 0.0228 0 0 0 0 0 0.015 0 0 0 0 -0.0067 0.0925 -0.0113 0 0 0 0 0.0247 0 0 0 0 0 0.0221 0 0 0 0 0 0.018 0 0 0 0 -0.0066 0.0935 -0.0272 0 0 0 0 0.0163 0 0 0 0 0 0.0171 0 0 0 0 0 0.018 0 0 0 0 -2.98023e-06 33.435 -2.38419e-05 -19.1515 3.39285 -3.39882 -13.4598 -13.4597 0 22.6539 -47.7211 57.7379 0 -22.6897 -3.57628e-05 180 -85.278 180 -1.49012e-05 -24.8369 0 -28.7104 -7.5859 -0.734685 -0.0062 0.0497 0.0339 0 0 0 0 0.0215 0 0 0 0 0 0.022 0 0 0 0 0 0.017 0 0 0 0 0.0068 0.0873 0.0207 0 0 0 0 0.0267 0 0 0 0 0 0.0213 0 0 0 0 0 0.018 0 0 0 0 0.0067 0.0922 0.0055 0 0 0 0 0.0266 0 0 0 0 0 0.0228 0 0 0 0 0 0.015 0 0 0 0 0.0067 0.0925 -0.0113 0 0 0 0 0.0247 0 0 0 0 0 0.0221 0 0 0 0 0 0.018 0 0 0 0 0.0066 0.0935 -0.0272 0 0 0 0 0.0163 0 0 0 0 0 0.0171 0 0 0 0 0 0.018 0 0 0 0 -2.98023e-06 33.435 -2.38419e-05 0.332935 5.26049 -0.0305248 -2.98023e-06 18.0564 -4.76837e-05 1.00602e-05 -1.0352e-05 -2.13443e-07
-0.757282 73.1794 -232.556 1.38953 41.7412 -2.90539 7.99986 -4.38454 6.31962 2.6301 -32.0839 -4.17837 -2.98023e-06 -47.5388 4.76837e-05 -4.54055 -7.6244 -0.603675 -8.9407e-06 -37.4769 -2.38419e-05 9.95844 -5.29319 6.71501 -8.08734 -5.65696 5.26297 -1.3269 -32.947 -6.3311 -1.19209e-05 -49.2181 0 3.35803 -4.77205 0.279678 1.19209e-05 -36.2787 4.76837e-05 -15.2134 -15.2522 -12.7679 0 4.93994 -4.93984 0.937867 -47.5404 0.779206 -2.98023e-06 33.435 -2.38419e-05 14.468 3.33775 3.34341 13.6817 -13.6817 0 -6.28492 -31.7155 -56.652 5.96046e-06 -19.5741 1.19209e-05 -180 -79.7448 -180 1.19209e-05 -24.6902 -4.76837e-05 14.9274 -17.6701 0.898359 0.0062 0.0497 0.0339 0 0 0 0 0.0215 0 0 0 0 0 0.022 0 0 0 0 0 0.017 0 0 0 0 -0.0068 0.0873 0.0207 0 0 0 0 0.0267 0 0 0 0 0 0.0213 0 0 0 0 0 0.018 0 0 0 0 -0.0067 0.0922 0.0055 0 0 0 0 0.0266 0 0 0 0 0 0.0228 0 0 0 0 0 0.015 0 0 0 0 -0.0067 0.0925 -0.0113 0 0 0 0 0.0247 0 0 0 0 0 0.0221 0 0 0 0 0 0.018 0 0 0 0 -0.0066 0.0935 -0.0272 0 0 0 0 0.0163 0 0 0 0 0 0.0171 0 0 0 0 0 0.018 0 0 0 0 -2.98023e-06 33.435 -2.38419e-05 -19.1515 3.39285 -3.39882 -13.4598 -13.4597 0 22.6539 -47.7211 57.7379 0 -22.6897 -3.57628e-05 180 -85.278 180 -1.49012e-05 -24.8369 0 -28.7104 -7.5859 -0.734685 -0.0062 0.0497 0.0339 0 0 0 0 0.0215 0 0 0 0 0 0.022 0 0 0 0 0 0.017 0 0 0 0 0.0068 0.0873 0.0207 0 0 0 0 0.0267 0 0 0 0 0 0.0213 0 0 0 0 0 0.018 0 0 0 0 0.0067 0.0922 0.0055 0 0 0 0 0.0266 0 0 0 0 0 0.0228 0 0 0 0 0 0.015 0 0 0 0 0.0067 0.0925 -0.0113 0 0 0 0 0.0247 0 0 0 0 0 0.0221 0 0 0 0 0 0.018 0 0 0 0 0.0066 0.0935 -0.0272 0 0 0 0 0.0163 0 0 0 0 0 0.0171 0 0 0 0 0 0.018 0 0 0 0 -2.98023e-06 33.435 -2.38419e-05 0.332935 5.26049 -0.0305248 -2.98023e-06 18.0564 -4.76837e-05 1.00602e-05 -1.0352e-05 -2.13443e-07
-0.829664 73.1116 -232.555 1.25957 41.601 -2.71622 7.95039 -4.35386 6.24564 2.7676 -31.9228 -4.06569 -2.98023e-06 -47.5721 2.38419e-05 -4.60302 -7.6953 -0.617671 2.98023e-06 -37.4844 -9.53674e-05 10.6633 -4.85698 7.06064 -8.03889 -5.59031 5.19161 -1.27839 -32.8649 -6.25732 2.98023e-06 -49.2699 -4.76837e-05 3.30966 -4.65159 0.268701 2.98023e-06 -36.2549 2.38419e-05 -15.5072 -15.2542 -13.0247 0 4.96092 -4.96087 0.931385 -47.5823 0.809764 -1.49012e-06 33.435 0 12.6017 2.6775 2.6804 13.3209 -13.3209 4.76837e-05 -0.605191 -29.873 -54.9723 -5.96046e-06 -19.3833 -3.57628e-05 180 -77.5994 180 0 -24.8119 0 17.4326 -18.8773 0.834713 0.0062 0.0497 0.0339 0 0 0 0 0.0215 0 0 0 0 0 0.022 0 0 0 0 0 0.017 0 0 0 0 -0.0068 0.0873 0.0207 0 0 0 0 0.0267 0 0 0 0 0 0.0213 0 0 0 0 0 0.018 0 0 0 0 -0.0067 0.0922 0.0055 0 0 0 0 0.0266 0 0 0 0 0 0.0228 0 0 0 0 0 0.015 0 0 0 0 -0.0067 0.0925 -0.0113 0 0 0 0 0.0247 0 0 0 0 0 0.0221 0 0 0 0 0 0.018 0 0 0 0 -0.0066 0.0935 -0.0272 0 0 0 0 0.0163 0 0 0 0 0 0.0171 0 0 0 0 0 0.018 0 0 0 0 -1.49012e-06 33.435 0 -19.2651 2.67702 -2.67994 -13.3233 -13.3233 2.38419e-05 22.4446 -47.086 55.7463 5.96046e-06 -22.6204 -5.96046e-06 180 -85.7674 180 -1.49012e-05 -24.998 4.76837e-05 -25.0792 -7.9627 -0.616197 -0.0062 0.0497 0.0339 0 0 0 0 0.0215 0 0 0 0 0 0.022 0 0 0 0 0 0.017 0 0 0 0 0.0068 0.0873 0.0207 0 0 0 0 0.0267 0 0 0 0 0 0.0213 0 0 0 0 0 0.018 0 0 0 0 0.0067 0.0922 0.0055 0 0 0 0 0.0266 0 0 0 0 0 0.0228 0 0 0 0 0 0.015 0 0 0 0 0.0067 0.0925 -0.0113 0 0 0 0 0.0247 0 0 0 0 0 0.0221 0 0 0 0 0 0.018 0 0 0 0 0.0066 0.0935 -0.0272 0 0 0 0 0.0163 0 0 0 0 0 0.0171 0 0 0 0 0 0.018 0 0 0 0 -1.49012e-06 33.435 0 0.275468 5.64035 -0.0270743 0 18.1186 -2.38419e-05 1.00243e-05 -1.04054e-05 6.4033e-07
-0.896618 73.0294 -232.554 1.1214 41.4495 -2.47815 7.89303 -4.31433 6.16803 2.88534 -31.7513 -3.99185 0 -47.6274 -9.53674e-05 -4.67176 -7.83894 -0.638564 0 -37.4512 4.76837e-05 11.4344 -4.77287 7.54434 -7.98122 -5.51873 5.11181 -1.26564 -32.7802 -6.23055 5.96046e-06 -49.262 2.38419e-05 3.25859 -4.48277 0.254963 -2.98023e-06 -36.2803 0 -15.8422 -15.255 -13.3176 -7.45058e-07 4.9822 -4.98221 0.918951 -47.6243 0.832103 -4.47035e-06 33.4349 -2.38419e-05 11.1269 2.01368 2.01491 13.0491 -13.0491 0 3.82087 -27.7693 -53.106 -5.96046e-06 -19.2446 -1.19209e-05 180 -75.6403 180 -1.19209e-05 -24.9504 4.76837e-05 19.1315 -19.9932 0.730638 0.0062 0.0497 0.0339 0 0 0 0 0.0215 0 0 0 0 0 0.022 0 0 0 0 0 0.017 0 0 0 0 -0.0068 0.0873 0.0207 0 0 0 0 0.0267 0 0 0 0 0 0.0213 0 0 0 0 0 0.018 0 0 0 0 -0.0067 0.0922 0.0055 0 0 0 0 0.0266 0 0 0 0 0 0.0228 0 0 0 0 0 0.015 0 0 0 0 -0.0067 0.0925 -0.0113 0 0 0 0 0.0247 0 0 0 0 0 0.0221 0 0 0 0 0 0.018 0 0 0 0 -0.0066 0.0935 -0.0272 0 0 0 0 0.0163 0 0 0 0 0 0.0171 0 0 0 0 0 0.018 0 0 0 0 -4.47035e-06 33.4349 -2.38419e-05 -19.3644 1.99324 -1.99445 -13.1829 -13.1829 -9.53674e-05 23.1482 -47.0206 55.1107 -5.96046e-06 -22.6808 2.38419e-05 180 -86.7748 180 5.96046e-06 -25.127 2.38419e-05 -22.5485 -7.74283 -0.454148 -0.0062 0.0497 0.0339 0 0 0 0 0.0215 0 0 0 0 0 0.022 0 0 0 0 0 0.017 0 0 0 0 0.0068 0.0873 0.0207 0 0 0 0 0.0267 0 0 0 0 0 0.0213 0 0 0 0 0 0.018 0 0 0 0 0.0067 0.0922 0.0055 0 0 0 0 0.0266 0 0 0 0 0 0.0228 0 0 0 0 0 0.015 0 0 0 0 0.0067 0.0925 -0.0113 0 0 0 0 0.0247 0 0 0 0 0 0.0221 0 0 0 0 0 0.018 0 0 0 0 0.0066 0.0935 -0.0272 0 0 0 0 0.0163 0 0 0 0 0 0.0171 0 0 0 0 0 0.018 0 0 0 0 -4.47035e-06 33.4349 -2.38419e-05 0.132036 6.07579 -0.0139751 -2.98023e-06 18.1942 -2.38419e-05 9.99078e-06 -9.54492e-06 -2.13443e-07
